HIERARCHY
ROOT Hips
{
	OFFSET 0.00000 0.00000 0.00000
	CHANNELS 6 Xposition Yposition Zposition Zrotation Yrotation Xrotation 
	JOINT LHipJoint
	{
		OFFSET 0 0 0
		CHANNELS 3 Zrotation Yrotation Xrotation
		JOINT LeftUpLeg
		{
			OFFSET 1.61328 -1.70571 0.84375
			CHANNELS 3 Zrotation Yrotation Xrotation
			JOINT LeftLeg
			{
				OFFSET 2.32400 -6.38513 0.00000
				CHANNELS 3 Zrotation Yrotation Xrotation
				JOINT LeftFoot
				{
					OFFSET 2.58843 -7.11166 0.00000
					CHANNELS 3 Zrotation Yrotation Xrotation
					JOINT LeftToeBase
					{
						OFFSET 0.17200 -0.47257 2.47970
						CHANNELS 3 Zrotation Yrotation Xrotation
						End Site
						{
							OFFSET 0.00000 -0.00000 1.26912
						}
					}
				}
			}
		}
	}
	JOINT RHipJoint
	{
		OFFSET 0 0 0
		CHANNELS 3 Zrotation Yrotation Xrotation
		JOINT RightUpLeg
		{
			OFFSET -1.49930 -1.70570 0.84375
			CHANNELS 3 Zrotation Yrotation Xrotation
			JOINT RightLeg
			{
				OFFSET -2.30458 -6.33178 0.00000
				CHANNELS 3 Zrotation Yrotation Xrotation
				JOINT RightFoot
				{
					OFFSET -2.62261 -7.20556 0.00000
					CHANNELS 3 Zrotation Yrotation Xrotation
					JOINT RightToeBase
					{
						OFFSET -0.18709 -0.51403 2.51340
						CHANNELS 3 Zrotation Yrotation Xrotation
						End Site
						{
							OFFSET -0.00000 -0.00000 1.28858
						}
					}
				}
			}
		}
	}
	JOINT LowerBack
	{
		OFFSET 0 0 0
		CHANNELS 3 Zrotation Yrotation Xrotation
		JOINT Spine
		{
			OFFSET -0.03798 2.19274 -0.19881
			CHANNELS 3 Zrotation Yrotation Xrotation
			JOINT Spine1
			{
				OFFSET -0.00024 2.19460 0.05248
				CHANNELS 3 Zrotation Yrotation Xrotation
				JOINT Neck
				{
					OFFSET 0 0 0
					CHANNELS 3 Zrotation Yrotation Xrotation
					JOINT Neck1
					{
						OFFSET -0.00746 1.82323 0.17286
						CHANNELS 3 Zrotation Yrotation Xrotation
						JOINT Head
						{
							OFFSET 0.11826 1.82121 -0.27841
							CHANNELS 3 Zrotation Yrotation Xrotation
							End Site
							{
								OFFSET 0.03496 1.85543 -0.11495
							}
						}
					}
				}
				JOINT LeftShoulder
				{
					OFFSET 0 0 0
					CHANNELS 3 Zrotation Yrotation Xrotation
					JOINT LeftArm
					{
						OFFSET 3.71926 0.78840 0.25473
						CHANNELS 3 Zrotation Yrotation Xrotation
						JOINT LeftForeArm
						{
							OFFSET 5.37587 -0.00000 0.00000
							CHANNELS 3 Zrotation Yrotation Xrotation
							JOINT LeftHand
							{
								OFFSET 3.35977 -0.00000 0.00000
								CHANNELS 3 Zrotation Yrotation Xrotation
								JOINT LeftFingerBase
								{
									OFFSET 0 0 0
									CHANNELS 3 Zrotation Yrotation Xrotation
									JOINT LeftHandIndex1
									{
										OFFSET 0.56186 -0.00000 0.00000
										CHANNELS 3 Zrotation Yrotation Xrotation
										End Site
										{
											OFFSET 0.45299 -0.00000 0.00000
										}
									}
								}
								JOINT LThumb
								{
									OFFSET 0 0 0
									CHANNELS 3 Zrotation Yrotation Xrotation
									End Site
									{
										OFFSET 0.45990 -0.00000 0.45990
									}
								}
							}
						}
					}
				}
				JOINT RightShoulder
				{
					OFFSET 0 0 0
					CHANNELS 3 Zrotation Yrotation Xrotation
					JOINT RightArm
					{
						OFFSET -3.65136 0.56074 0.01624
						CHANNELS 3 Zrotation Yrotation Xrotation
						JOINT RightForeArm
						{
							OFFSET -5.22819 -0.00000 0.00000
							CHANNELS 3 Zrotation Yrotation Xrotation
							JOINT RightHand
							{
								OFFSET -3.40764 -0.00000 0.00000
								CHANNELS 3 Zrotation Yrotation Xrotation
								JOINT RightFingerBase
								{
									OFFSET 0 0 0
									CHANNELS 3 Zrotation Yrotation Xrotation
									JOINT RightHandIndex1
									{
										OFFSET -0.58325 -0.00000 0.00000
										CHANNELS 3 Zrotation Yrotation Xrotation
										End Site
										{
											OFFSET -0.47024 -0.00000 0.00000
										}
									}
								}
								JOINT RThumb
								{
									OFFSET 0 0 0
									CHANNELS 3 Zrotation Yrotation Xrotation
									End Site
									{
										OFFSET -0.47742 -0.00000 0.47742
									}
								}
							}
						}
					}
				}
			}
		}
	}
}
MOTION
Frames: 10
Frame Time: .0083333
5.2325 16.4585 -6.1924 -248.4330 -81.0543 247.5330 0.0000 0.0000 0.0000 -29.8943 19.9676 20.1163 0.0000 0.0000 0.0000 -0.3818 -10.8818 4.4363 0.0496 1.4366 3.9509 0.0000 0.0000 0.0000 14.6980 17.4584 -30.5943 -2.8686 -10.4793 30.5433 -0.8456 4.5977 -16.4375 -0.2048 -2.9136 8.0383 -13.3419 -6.9152 3.3693 0.8740 -10.0180 -3.5700 8.7111 -4.6103 -3.2834 -14.4342 -15.3029 3.9750 17.7101 -22.1568 2.1743 6.5345 -11.2232 3.6114 0.0000 0.0000 0.0000 -80.6487 -16.2937 28.5638 49.4137 -52.7563 -25.7067 -0.0000 0.0000 -19.8961 24.1265 12.9743 5.7420 -7.1250 0.0000 -0.0000 -2.9418 44.1282 0.0634 0.0000 0.0000 0.0000 67.1709 -23.3011 -23.5208 -5.8442 10.0020 -0.5118 0.0000 0.0000 16.4027 -22.7142 1.6630 -0.6960 7.1250 -0.0000 -0.0000 2.9903 -28.1726 1.2257
5.0539 16.4812 -6.1860 -247.5090 -81.2190 246.6460 0.0000 0.0000 0.0000 -29.4824 20.0443 20.7112 0.0000 0.0000 0.0000 -0.3371 -10.3252 5.3085 0.0274 1.0685 2.9374 0.0000 0.0000 0.0000 15.1200 16.9080 -30.2150 -2.9033 -10.5368 30.7332 -0.8056 4.2671 -16.0572 -0.2206 -3.0233 8.3436 -13.0483 -6.9633 3.1663 1.0424 -10.0338 -3.6427 8.7071 -4.6244 -3.2566 -14.4542 -15.3737 4.1391 17.5658 -22.2788 2.2683 6.4919 -11.2893 3.6165 -0.0000 -0.0000 0.0000 -81.6142 -15.5058 28.4983 49.4226 -52.7599 -25.7137 -0.0000 0.0000 -20.1302 24.1378 12.8830 5.7056 -7.1250 0.0000 -0.0000 -2.9179 44.0307 0.0699 -0.0000 -0.0000 0.0000 67.0991 -23.2256 -23.9871 -5.8201 9.9619 -0.5077 0.0000 0.0000 16.3758 -22.9726 1.5200 -0.6442 7.1250 -0.0000 -0.0000 2.7930 -28.3249 1.1346
4.8729 16.5105 -6.1794 -246.1850 -81.4337 245.3450 0.0000 0.0000 0.0000 -28.9817 20.1455 21.3027 0.0000 0.0000 0.0000 -0.2797 -9.6724 6.2853 0.0105 0.6607 1.8156 0.0000 0.0000 0.0000 15.6049 16.3362 -29.8478 -2.9286 -10.5786 30.8716 -0.7565 4.2227 -15.5492 -0.2618 -3.2920 9.0928 -12.6845 -7.0010 2.9707 1.2385 -10.0334 -3.7158 8.6961 -4.6313 -3.2440 -14.4667 -15.4339 4.2641 17.3909 -22.3842 2.4037 6.4368 -11.3447 3.6330 0.0000 0.0000 0.0000 -82.6487 -14.6551 28.4019 49.1976 -52.6667 -25.5348 -0.0000 0.0000 -20.2245 24.0616 12.7974 5.6485 -7.1250 0.0000 -0.0000 -2.9750 43.9292 0.0787 0.0000 0.0000 0.0000 67.0453 -23.1276 -24.1190 -5.8152 9.9537 -0.5068 0.0000 0.0000 16.1493 -23.1765 1.3779 -0.5898 7.1250 -0.0000 -0.0000 2.6377 -28.4773 1.0619
4.6904 16.5433 -6.1722 -244.4000 -81.6812 243.5770 0.0000 0.0000 0.0000 -28.4150 20.2741 21.8777 0.0000 0.0000 0.0000 -0.2079 -8.9172 7.3500 0.0012 0.2275 0.6251 0.0000 0.0000 0.0000 16.1400 15.7445 -29.4805 -2.9445 -10.6046 30.9578 -0.6965 4.4894 -14.8874 -0.3256 -3.6677 10.1437 -12.2602 -7.0275 2.7766 1.4607 -10.0162 -3.7905 8.6808 -4.6307 -3.2424 -14.4714 -15.4845 4.3305 17.1702 -22.4731 2.6011 6.3623 -11.3881 3.6682 0.0000 0.0000 0.0000 -83.7430 -13.7491 28.2584 48.7511 -52.4792 -25.1801 -0.0000 0.0000 -20.1656 23.8838 12.7174 5.5676 -7.1250 0.0000 -0.0000 -3.1256 43.8220 0.0910 0.0000 0.0000 0.0000 67.0048 -23.0053 -23.8847 -5.8322 9.9819 -0.5098 0.0000 0.0000 15.7052 -23.3055 1.2472 -0.5372 7.1250 -0.0000 -0.0000 2.5399 -28.6182 1.0140
4.5072 16.5772 -6.1645 -242.2260 -81.9351 241.4270 0.0000 0.0000 0.0000 -27.8194 20.4169 22.4184 0.0000 0.0000 0.0000 -0.1190 -8.0364 8.5020 0.0008 -0.1772 -0.4869 0.0000 0.0000 0.0000 16.6999 15.1190 -29.1086 -2.9544 -10.6209 31.0116 -0.6270 4.9712 -14.0999 -0.3949 -4.0349 11.1749 -11.7984 -7.0435 2.5687 1.6985 -9.9832 -3.8635 8.6595 -4.6238 -3.2379 -14.4589 -15.5272 4.3342 16.9091 -22.5448 2.8448 6.2690 -11.4195 3.7178 0.0000 0.0000 0.0000 -84.8813 -12.8098 28.0607 48.0916 -52.1962 -24.6581 -0.0000 0.0000 -19.9370 23.5984 12.6391 5.4602 -7.1250 0.0000 -0.0000 -3.3742 43.7046 0.1080 0.0000 0.0000 0.0000 66.9842 -22.8577 -23.2457 -5.8745 10.0527 -0.5171 0.0000 0.0000 15.0052 -23.3466 1.1308 -0.4881 7.1250 -0.0000 -0.0000 2.5101 -28.7445 0.9946
4.3237 16.6100 -6.1566 -239.8220 -82.1694 239.0610 0.0000 0.0000 0.0000 -27.2352 20.5585 22.9167 0.0000 -0.0000 -0.0000 -0.0105 -7.0041 9.7371 0.0059 -0.4972 -1.3663 0.0000 0.0000 0.0000 17.2608 14.4143 -28.7472 -2.9638 -10.6362 31.0625 -0.5515 5.5235 -13.2372 -0.4502 -4.3049 11.9361 -11.3286 -7.0513 2.3362 1.9400 -9.9386 -3.9354 8.6339 -4.6128 -3.2216 -14.4305 -15.5623 4.2977 16.6250 -22.5991 3.1037 6.1652 -11.4404 3.7710 0.0000 0.0000 0.0000 -86.0458 -11.8496 27.8013 47.2382 -51.8190 -23.9855 -0.0000 0.0000 -19.5132 23.2019 12.5913 5.3383 -7.1250 0.0000 -0.0000 -3.7277 43.6079 0.1283 0.0000 0.0000 0.0000 66.9914 -22.7064 -22.1255 -5.9539 10.1853 -0.5311 0.0000 0.0000 13.9638 -23.2859 1.0321 -0.4442 7.1250 -0.0000 -0.0000 2.5595 -28.8523 1.0076
4.1400 16.6411 -6.1485 -237.4340 -82.3676 236.7290 0.0000 0.0000 0.0000 -26.6968 20.6781 23.3694 0.0000 0.0000 0.0000 0.1197 -5.7845 11.0505 0.0104 -0.6587 -1.8102 0.0000 0.0000 0.0000 17.7906 13.6157 -28.4166 -2.9774 -10.6584 31.1361 -0.4774 6.0488 -12.3818 -0.4865 -4.4727 12.4104 -10.8840 -7.0567 2.0711 2.1753 -9.8917 -4.0067 8.6099 -4.6019 -3.1842 -14.3873 -15.5864 4.2528 16.3366 -22.6316 3.3407 6.0613 -11.4508 3.8137 0.0000 0.0000 0.0000 -87.2198 -10.8826 27.4745 46.1982 -51.3422 -23.1707 -0.0000 0.0000 -18.8850 22.7272 12.5481 5.1997 -7.1250 0.0000 -0.0000 -4.1521 43.5080 0.1532 0.0000 0.0000 0.0000 67.0326 -22.5716 -20.5024 -6.0840 10.4023 -0.5543 0.0000 0.0000 12.5458 -23.1132 0.9630 -0.4110 7.1250 -0.0000 -0.0000 2.6956 -28.9284 1.0564
3.9564 16.6702 -6.1409 -235.3110 -82.5369 234.6830 0.0000 0.0000 0.0000 -26.2169 20.7502 23.7792 0.0000 0.0000 0.0000 0.2720 -4.3407 12.4226 0.0096 -0.6326 -1.7384 0.0000 0.0000 0.0000 18.2708 12.7191 -28.1385 -2.9982 -10.6921 31.2483 -0.4123 6.5292 -11.6270 -0.5101 -4.5782 12.7092 -10.4812 -7.0655 1.7767 2.4005 -9.8519 -4.0802 8.5931 -4.5951 -3.1266 -14.3391 -15.5979 4.2300 16.0631 -22.6425 3.5291 5.9677 -11.4526 3.8364 0.0000 0.0000 0.0000 -88.3895 -9.9242 27.0884 44.9783 -50.7579 -22.2220 -0.0000 0.0000 -18.0670 22.2020 12.5265 5.0586 -7.1250 0.0000 -0.0000 -4.6247 43.4262 0.1800 0.0000 0.0000 0.0000 67.1067 -22.4602 -18.4652 -6.2659 10.7049 -0.5876 0.0000 0.0000 10.8350 -22.8374 0.9437 -0.3974 7.1250 -0.0000 -0.0000 2.9111 -28.9506 1.1395
3.7729 16.6979 -6.1337 -233.6620 -82.6970 233.1220 0.0000 0.0000 0.0000 -25.7926 20.7541 24.1598 0.0000 0.0000 0.0000 0.4433 -2.6510 13.8261 0.0041 -0.4144 -1.1386 0.0000 0.0000 0.0000 18.6993 11.7093 -27.9224 -3.0256 -10.7364 31.3960 -0.3584 7.0015 -11.0141 -0.5278 -4.6554 12.9283 -10.1250 -7.0812 1.4636 2.6121 -9.8246 -4.1479 8.5831 -4.5952 -3.0452 -14.2845 -15.6023 4.2296 15.8162 -22.6388 3.6563 5.8871 -11.4490 3.8377 0.0000 -0.0000 0.0000 -89.5374 -9.0060 26.6600 43.5928 -50.0602 -21.1543 -0.0000 0.0000 -17.0983 21.6303 12.5590 4.9282 -7.1250 0.0000 -0.0000 -5.1473 43.3975 0.2041 0.0000 -0.0000 0.0000 67.2242 -22.3701 -16.1335 -6.5024 11.0974 -0.6324 0.0000 0.0000 8.9174 -22.4672 0.9723 -0.4021 7.1250 -0.0000 -0.0000 3.1990 -28.9215 1.2547
3.5902 16.7243 -6.1272 -232.6390 -82.8750 232.1920 0.0000 0.0000 0.0000 -25.4109 20.6707 24.5275 0.0000 -0.0000 -0.0000 0.6275 -0.7054 15.2368 0.0000 -0.0067 -0.0185 0.0000 0.0000 0.0000 19.0852 10.5718 -27.7716 -3.0575 -10.7875 31.5666 -0.3121 7.5254 -10.5245 -0.5448 -4.7287 13.1362 -9.8132 -7.1086 1.1471 2.8129 -9.8174 -4.2090 8.5837 -4.6055 -2.9458 -14.2347 -15.5990 4.2540 15.5971 -22.6223 3.7319 5.8208 -11.4407 3.8217 0.0000 -0.0000 0.0000 -90.6549 -8.1465 26.2052 42.0516 -49.2395 -19.9796 -0.0000 0.0000 -16.0329 21.0040 12.6557 4.8083 -7.1250 0.0000 -0.0000 -5.7303 43.4307 0.2227 0.0000 -0.0000 0.0000 67.3794 -22.2975 -13.6263 -6.7904 11.5737 -0.6890 0.0000 0.0000 6.8972 -22.0256 1.0510 -0.4251 7.1250 -0.0000 -0.0000 3.5407 -28.8386 1.3962
